<svg version="1.1" xmlns="http://www.w3.org/2000/svg" x="0px" y="0px" width="160px" height="67px" viewBox="0 0 952.9 408.4" style="overflow:scroll;enable-background:new 0 0 952.9 408.4;" xml:space="preserve">
<style type="text/css">.st0{fill:#F4F4F4;} .st1{fill:#F4F4F4;stroke:#F4F4F4;stroke-width:3;stroke-miterlimit:10;}
</style>
<g id="icon_1_">
  <g id="XMLID_14_">
    <path id="XMLID_20_" class="st0" d="M13.2,235c5.6-2.7,12.6-3.5,18.8-2.9c78,8.4,156.7,9.3,235,4.5c12.4-0.8,25.2-4.2,36.8,0.2
      c3.1,1.2,7,6.2,9.6,4.2c2.8-2.2,1.9-6.7-0.2-9.4c-4.7-6.1-13.3-7.3-20.9-7.7c-36.1-2-72.1,3.6-108.2,4.4
      c-18.4,0.4-36.9-0.5-55.3-1.4c-38.5-1.8-76.9-3.6-115.4-5.5c-1.9-0.2-4.9-0.4-6.7,0.2c-0.4,0.1-0.8,0.3-1,0.7
      c-0.2,0.3-0.2,0.7-0.2,1C5.6,228,9.4,231.9,13.2,235z"/>
    <g id="XMLID_18_">
      <path id="XMLID_19_" class="st0" d="M13.9,236.3c10.7-4.8,22.5-2.1,33.8-1.1c11.5,1.1,23,2,34.5,2.8c23.3,1.6,46.7,2.5,70.1,2.9
        c23.1,0.3,46.1,0.1,69.2-0.6c11.9-0.4,23.7-0.9,35.6-1.6c11-0.6,22-2.6,33-2.6c5,0,10.5,0.4,14.9,3.1c2.3,1.4,4.8,4.3,7.8,3.7
        c5.7-1.2,3.9-9.2,1.5-12.4c-4.8-6.2-13.3-7.5-20.5-8.1c-11.3-0.8-22.6-0.6-33.9-0.2c-23.3,0.9-46.5,3.5-69.9,4.3
        c-23.1,0.8-46.1-0.5-69.1-1.6c-26.5-1.3-53-2.5-79.6-3.8c-6.6-0.3-13.3-0.6-19.9-0.9C17,220,10.5,218.4,6.3,220
        c-7.4,2.9,3.2,13.7,5.9,16c1.5,1.2,3.6-0.9,2.1-2.1c-2.9-2.4-10.9-9.9-3.6-11.3c1.7-0.3,3.9,0.3,5.7,0.3c3,0.1,6,0.3,8.9,0.4
        c10.6,0.5,21.2,1,31.8,1.5c21.2,1,42.4,2,63.6,3c21.1,1,42.1,2.2,63.2,1.7c21-0.4,42-2.5,63-3.8c10.5-0.6,21-1.1,31.5-1
        c9,0.1,20.3-0.8,28.5,3.5c2.2,1.1,4.4,2.8,5.6,5c0.8,1.5,2.5,6.5-2.1,6c-0.5,0-1.1-0.8-1.5-1c-1.4-0.7-2.6-2-4-2.7
        c-1.8-0.9-3.9-1.4-5.9-1.8c-8.9-1.8-17.9-0.2-26.8,0.8c-20.7,2.2-41.8,2.4-62.6,2.9c-21.1,0.5-42.2,0.6-63.3,0.2
        c-23.7-0.5-47.4-1.5-71.1-3.2c-11.5-0.8-23-1.8-34.5-3c-9.9-1-19-2-28.4,2.2C10.7,234.5,12.2,237.1,13.9,236.3z"/>
    </g>
  </g>
  <g id="XMLID_10_">
    <path id="XMLID_13_" class="st0" d="M352.6,237.3c-5.9-7.7-8.6-21.1-10-30.6c-0.4-3.1-0.9-6.1-1.2-9.2c-1.3-12-1.3-24.2-1.2-36.3
      c0.1-7.1,0.1-14.3,0.2-21.4c-0.6-7.4,1.2-20,3.4-27.1c5.7-18.1,12.6-36.3,24.9-50.8c6.1-7.2,13.4-13.4,21.3-18.7
      c31.6-21.3,70.5-28.7,108.6-30.8c5.7-0.3,16.5,0.1,20,4.6c2.7,2.3,8.5,6.7,11.9,7.8c13.9,4.6,29.3,8.4,38.9,19.5
      c2.7,3.1,4.8,6.7,6.9,10.2c3.7,6.3,10.6,17.9,9.9,16.7c-2.6-4.4,5.2,8.9,6.7,13.8c1.7,5.6,1.7,11.6,1.4,17.5
      c-0.2,8.1-1.5,20.5-1.7,28.6c-0.3,11.2-0.5,22.5-3.3,33.3c-1.2,4.5-2.7,8.8-4.3,13.2c-3.9,10.6-7.7,21.2-11.6,31.9
      c-2.3,6.3-12.8,25.6-11.2,31.9c2.2,8.5,8.9,7.3,17.3,9.6c7.2,2,24.7,0.6,32.1-0.6c30.2-5.1,60.8-8,91.5-8.7
      c2.4,0.4,7.7-0.8,9.9-1.8s4.3-2.3,6.7-3c1.7-0.5,3.6-0.6,5.4-0.7c8.9-0.5,17.8-0.3,26.6,0.7c9.4,1,18.8,2.7,28.3,1.9
      c29.3-3.3,63.9-0.1,93.3-0.7c17.4-0.4,34.8-1.2,52.2-2.5c2.2-0.2,4.5-0.3,6.5,0.6c1.2,0.5,2.2,1.4,3.2,2.3c1.2,1,2.4,2,3.6,3.1
      c1.1,0.9,2.6,1.9,3.9,1.2c1.2-0.7,1.3-2.5,0.5-3.7s-2.1-1.8-3.3-2.5c-5.1-2.9-9.2-7.4-12.7-12.1c-12.8,2.2-31.1,1.9-44,2.3
      c-24.4,0.6-80.3,0-104.7,0.2c-13.1-0.5-26.2-0.9-39.4-1.4c-2.8-0.1-5.5-0.2-8.3-0.6c-4.4-0.6-8.8-1.8-13.2-1.5
      c-5.6,0.4-14.1,7.3-19.8,7.2c-24.6,1.3-47.9,4.6-72.7,6.7c-10.3,0.9-19.5,2.4-34.9,3.7c-2.3,0.2-12.8,3.3-14.2-3.4
      c6.3-21.2,11.4-23.3,15.2-36.5c1.2-4,2.1-8,3-12.1c0.7-3,1.4-6,2.1-9.1c2.2-9.5,4.4-19,5.3-28.7c1.3-14.4,0.2-33,2.1-47.4
      c0.8-8.3-1.2-16.6-4.6-24.2s-8-14.5-12.7-21.4c-3.7-5.6-7.5-11.1-11.2-16.7c-2.2-3.2-4.7-7.1-8.2-8.7c-5.6-5.3-12.8-8.6-20-11.3
      s-14.7-5-21.4-8.7c-5.2-2.9-10-6.5-15.5-8.7c-5.9-2.3-14.5-2.9-20.8-2.7c-16-1.1-31.8,2.9-47.2,7.1c-5.8,1.6-11.5,3.2-17.2,5.1
      c-19.7,6.6-40.4,18.4-56.7,31.3c-8.6,7.1-16,15.8-21.6,25.5c-1.7,2.9-3.2,5.9-4.7,9c-3.4,6.8-6.8,16.5-8.4,23.9
      c-1,4.7-1.3,9.4-1.6,14.2c-1.1,18.9-1,40.8-1.1,59.7c0.4,8.6,1.7,17.1,3.6,25.5c0.6,2.6,1.3,5.2,2,7.9c1.3,5,2.6,9.9,4,14.9
      c1,3.6,3.8,9.2,5.8,12.3c2.6,4.3,7.2,8.7,11.1,11.8c2.1,1.7,4.5,3,7,4.2c12.1,5.9,25.2,9.6,38.2,13.3c2.2,0.6,4.9,0.5,7.2,0.9
      c2.1,0.3,4.9,0.3,7.1,0.3c9.7-0.2,21.6-2.6,30.4-6.6c9.6-3.5,19.4-7,28.1-12.4c9.3-5.8,17.3-13.5,24.3-22s11.7-16,17.6-25.2
      c2.9-6.4,7.5-15.7,10.4-22.1c0.8-1.7,1.5-3.4,2.1-5.1c2.1-5.9,2.7-12.3,2.4-18.5c-0.3-6.3-1.5-15-2.8-21.1
      c-1.1-9.2-6.7-17-12.2-24.5c-1.3-1.8-2.6-3.6-4.2-5.1c-1.5-1.4-2.6-2.7-4.1-4.1c-1.7-1.5-3.6-2.9-5.2-4.5
      c-1.4-1.4-2.8-2.6-4.3-3.9c-4.8-4-9.9-9.1-15.3-12.4c-8.3-5.5-18.7-7.4-28.6-6.6s-19.5,4.2-28.5,8.4
      c-13.1,6.2-26.3,16.9-34.9,28.6c-7.4,9.9-10,22.9-8.8,35.2s5.8,24.1,11.8,34.9c4.7,8.5,11.1,17.2,19.9,21.2
      c6.4,3.4,14.2,3.4,21.1,1.3c7-2,13.2-5.8,19.3-9.8c8.8-5.7,19.3-9.2,20.1-22.2c-1.5-22.1-6.9-27.3-13.8-38.3
      c-1.4-2.3-2.9-4.7-4.9-6.6c-2.5-2.4-5.7-3.9-9-5.2c-4-1.6-7.9-3-12.3-2.7c-6.9,1.4-12.6,7.1-14.9,13.8s-1.5,14.2,1.2,20.7
      c2,4.8,5.5,9.6,10.6,10.7c-1-3.8-1.5-8.3-2-12.3c-0.2-1.9-0.4-3.9,0.2-5.7c0.9-3,3.5-5.1,5.9-7c3.8-3,8.2-6.2,13-5.7
      c4.3,0.5,7.8,3.9,9.5,7.9c1.7,3.9,2.1,8.3,2.4,12.6c0.3,3.7,0.5,7.6-0.8,11.1c-1,2.5-2.7,4.7-4.5,6.7
      c-11.2,12.4-27.5,20.1-44.3,21c-1.8,0.1-2.7-0.8-4.2-1.6c-2.1-1-2.9-3-4-5c-7.3-14.3-11.7-30-10-46c0.4-3.5,1-7.1,2.4-10.3
      c1.8-4.1,4.8-7.5,7.9-10.6c12.5-12.8,27.9-22.7,44.6-29c10.5-3.9,22.5-6.2,32.6-1.5c3.9,1.8,7.3,4.6,10.6,7.4
      c7,5.8,14,11.7,18.8,19.5c6.4,10.4,8,23.1,8.4,35.3c0.1,4.4,0.2,8.8-0.6,13.1c-0.9,5-2.7,9.8-4.9,14.5c-3.7,7.9-10,17.8-15.3,24.6
      c-4.5,7.2-9.8,13.7-15.1,19.1c-2.7,2.8-5.4,4.9-8.2,7.5c-2.3,2.1-5,3.8-7.7,5.5c-4.9,3-9.7,6.1-14.9,8.5
      c-4.5,2.1-9.1,3.7-13.8,5.1c-5.6,1.8-11.3,3.3-17.1,4.7c-4.2,1-8.4,2-12.8,2.3c-10.3,0.8-18.1-0.6-37.4-7.9
      C364.6,245.3,359.6,244.8,352.6,237.3z"/>
    <g id="XMLID_11_">
      <path id="XMLID_12_" class="st0" d="M353.9,236.6c-7.9-10.9-9.5-26-11-39c-1.9-16.5-1.2-33.3-1-49.9c0.1-13.7,0.7-26.3,5-39.4
        c4.8-14.6,10.6-29.1,19.9-41.4c18.7-24.9,50.1-38.6,79.6-45.6c14.9-3.5,30.1-5.6,45.3-6.7c6.1-0.4,12.4-1,18.5,0.2
        c5.7,1.1,9.2,5.4,13.8,8.5c5.8,3.9,12.6,5.2,19.1,7.5c7.6,2.6,15.2,5.8,21.3,11.1c9,7.7,14.3,20.3,20.3,30.4
        c1,1.7,3.6,0.2,2.6-1.5c-0.2-0.3-0.4-0.6-0.6-1c-0.8-1.4-3.4-0.5-2.7,1.2c1.9,4.6,5,8.6,6.7,13.3c3.5,9.4,1.8,20.6,1.2,30.3
        c-0.7,10.5-0.9,21.1-1.6,31.7c-0.8,12.3-4.2,23.4-8.4,34.9c-3.8,10.4-7.1,21.2-11.5,31.3c-2.8,6.4-6,12.7-8.3,19.4
        c-1.7,5.1-3,10.6,0.9,15.1c4,4.6,13,5.3,18.6,6.2c18,2.7,37.1-2.6,54.9-4.9c12.3-1.6,24.6-2.8,37-3.6c10.8-0.7,22.1-0.1,32.9-1.4
        c3.6-0.4,6.5-1.7,9.7-3.2c6.2-2.9,13.4-2.5,20.1-2.4c12.1,0.2,23.9,2.6,35.9,2.9c10.8,0.3,21.7-1.5,32.6-1.6
        c11.4-0.2,22.8,0.1,34.2,0.4c26.3,0.7,52.4,0.1,78.6-1.6c3.1-0.2,6.3-0.8,9.4-0.6c5.1,0.2,6.9,2.8,10.6,5.6
        c2,1.5,4.8,2.9,6.7,0.5c1.7-2.1,0.3-4.9-1.5-6.3c-2.3-1.9-5-3-7.3-5c-2.7-2.4-5.1-5.2-7.2-8.1c-0.4-0.6-1-0.8-1.7-0.7
        c-14.8,2.4-30,1.9-45,2.2c-11.1,0.3-22.2,0.3-33.3,0.3c-24.6,0-49.4,0.6-74-0.3c-9.2-0.3-18.4-0.6-27.5-1
        c-4.3-0.2-8.6-0.2-12.8-0.5c-4.6-0.4-9.1-1.6-13.7-1.8c-6-0.3-10.7,2.8-16,5.2c-7.5,3.4-16.8,2.5-24.9,3.3
        c-18.2,1.6-36.3,3.8-54.5,5.4c-12.3,1.1-24.8,2.1-37,4c-2.3,0.4-5,1-7.4,0.4c-4.9-1.3-1.8-7.1-0.6-10.4c2-5.4,4.5-10.5,7.2-15.6
        c6-11.5,8.2-24.2,11.1-36.7c3.8-16.4,5.3-32.3,5.5-49.1c0.2-15.4,3.6-31-2-45.8c-5.8-15.3-16.7-28.9-25.8-42.4
        c-8.1-11.9-21.5-17.5-34.6-22.2c-8.8-3.2-16.3-7.3-24.4-11.9c-5.9-3.4-12.1-5.2-18.9-5.8c-16.7-1.5-33,0.7-49.2,4.9
        c-31.1,8-62.5,20.4-86.4,42.7c-10.9,10.2-19.1,23-24.8,36.8c-6.1,14.8-7.6,29.4-8.1,45.3c-0.6,17.1-1.6,34.9-0.2,51.9
        c0.7,8,2,15.9,4,23.6c2,7.9,3.6,16.4,6.7,24c5.4,13.3,15.3,22.2,28.3,27.9c13.6,5.9,29,11.6,43.9,12.3
        c15.6,0.7,30.1-4.5,44.5-10.1c15.1-5.9,28.2-14,39.1-26.1c10.1-11.1,19-23.9,25.4-37.4c3-6.4,6.3-12.6,8.9-19.2
        c2.8-7,3.5-14.5,3-22c-0.9-14.5-3.4-28.2-11.8-40.3c-8.4-12.1-20-22-31.5-31.1c-24.8-19.8-58.6-9.2-81.5,8.6
        c-11.2,8.7-21.7,19.9-25.5,33.9c-4.1,14.9-1.2,30.6,4.7,44.6c5.2,12.3,12.5,26,24.6,32.6c14,7.6,28.7,1.5,41-6.3
        c8.7-5.5,20.1-10.1,22.6-21.1c1.4-6.2-0.2-13.6-1.7-19.6c-1.2-4.6-2.9-9-5.3-13.1c-2.5-4.4-5.4-8.8-8.2-13
        c-3.7-5.3-8.7-8.1-14.7-10.3c-6.4-2.4-12.3-3-18.2,0.9c-5,3.3-8.5,8.7-9.8,14.5c-2.4,10.8,1.6,27.3,13.6,30.7
        c1.1,0.3,2.1-0.8,1.8-1.8c-1.1-4.7-2.3-9.9-2.1-14.8c0.2-5.7,7.4-10.9,12.2-12.9c13.7-5.8,16.1,12.8,16.1,21.9
        c0.1,10.6-9.7,18.3-17.9,23.5c-7.4,4.7-15.8,7.8-24.5,9.1c-5.6,0.8-9.4,0.6-12.4-4.7c-2.7-4.7-4.7-9.9-6.4-15
        c-3.1-9.4-4.7-19.3-3.8-29.1c0.5-5.6,1.6-11,4.8-15.6c2.9-4.2,6.8-7.8,10.6-11.2c7-6.3,14.7-11.7,22.9-16.2
        c8.4-4.6,17.6-8.6,27.1-10.4c11.2-2.1,20.3,0.7,29.1,7.8c7.3,5.9,14.9,12.1,19.8,20.2c5.1,8.4,7.1,18.2,7.8,27.8
        c0.8,10.6,0.6,20.7-3.6,30.6c-3.5,8.2-8.3,16-13.4,23.3c-5.7,8-11.1,16.2-18.1,23.2c-6.9,6.9-14.5,12.3-22.9,17.2
        c-9.8,5.7-20.4,9.1-31.3,12c-8.7,2.4-17.6,4.6-26.7,4.2c-7.6-0.4-14.9-2.8-22-5.3c-9.1-3.2-18.1-6.1-25-13.1
        c-1.4-1.4-3.5,0.7-2.1,2.1c6.7,6.9,15.1,9.8,23.9,13c7.7,2.8,15.6,5.5,23.7,6.1c9.2,0.8,18.3-1.4,27.2-3.7
        c11.7-3.1,23.2-6.7,33.7-12.8c9.6-5.6,18.2-11.9,25.8-20c7.7-8.3,14.3-18,20.4-27.6c6-9.3,11.8-19.7,13.3-30.8
        c1.4-10.3,0.4-21.9-2-32c-2.5-10.9-8.1-20-16.2-27.6c-7.2-6.8-15.7-15.2-25.7-17.5c-10.5-2.4-21.4,0.6-31.1,4.6
        c-10.5,4.2-20.4,9.9-29.4,16.8c-7.7,5.9-16.8,13.2-20.9,22.3c-4.4,9.8-3.6,22.3-1.6,32.5c1.1,5.8,2.9,11.4,5.2,16.9
        c1.7,4,3.4,9.5,6.6,12.6c6.3,6.2,18.5,2,25.6-0.6c10.5-3.8,20.4-10.3,27.6-18.9c3.6-4.3,5-8.8,4.9-14.4
        c-0.1-5.3-0.4-11.3-2.6-16.2c-4.5-10.3-14.4-10.7-22.8-4.6c-3.8,2.8-8,5.9-8.8,10.8c-0.9,5.4,0.8,12.2,2.1,17.4
        c0.6-0.6,1.2-1.2,1.8-1.8c-8.3-2.4-11.7-12.6-12.1-20.4c-0.4-8.1,3.3-16.6,10.8-20.4c7-3.6,18.5,0.7,24,6c3.9,3.7,6.8,9.4,9.6,14
        c2.4,3.8,4.4,7.7,5.7,12c1.9,6.1,3.8,14,2.6,20.3c-1.2,6.3-5.6,10.3-10.8,13.5c-5,3.1-10.1,6.3-15.2,9.3
        c-7.5,4.3-15.9,7.6-24.6,6.4c-7.6-1.1-14.1-5.8-19-11.6c-9.6-11.3-16.4-26.9-18.7-41.5c-2.5-15.9,1.4-31,12-43.2
        c9.9-11.4,22.6-20.3,36.6-25.9c14.5-5.8,31.4-8.6,45.9-1.2c6.8,3.4,12.2,8.8,17.9,13.7c4.9,4.2,9.7,8.4,14.2,13
        c4.9,5,9.3,11.5,12.5,17.8c3.3,6.6,4.3,14.1,5.3,21.4c1,7.2,1.7,14.7,0.4,21.9c-1.3,7.4-4.9,14.2-8.2,20.9
        c-2.9,6.1-5.6,12.1-9.2,17.7c-4,6.3-8.2,12.4-12.9,18.3c-9.7,12.2-21.2,22.2-35.5,28.7c-13.9,6.3-28.9,12.1-44.2,13.1
        c-14.7,1-28.8-3.8-42.5-8.9c-7.6-2.8-15.3-5.9-21.4-11.2c-5.4-4.7-9.5-10.3-12.4-16.8c-3-6.8-4.4-14.6-6.3-21.8
        c-2.1-7.9-3.7-16-4.5-24.1c-1.4-15-0.5-30.5-0.2-45.5c0.3-15.2,0.4-30.4,5.3-45c4.7-14.1,12.1-27.5,22.2-38.4
        c10.3-11.1,23.5-19.6,36.7-26.9c13.7-7.5,28-12.9,43.1-17.1c16-4.4,31.8-8.2,48.5-7.8c6.9,0.2,14.1,0,20.7,2.5
        c7.3,2.7,13.5,7.9,20.6,11.1c6.5,3,13.5,5,20.1,7.7c7,2.8,13,6.8,18.8,11.5c5.7,4.6,9.5,12.8,13.6,18.8
        c4.3,6.4,8.8,12.8,12.5,19.6c4,7.3,7.1,15.2,7.7,23.6c0.5,7-1,14.3-1.2,21.4c-0.5,14.9,0,29.6-2.8,44.3
        c-1.5,8.2-3.5,16.3-5.4,24.3c-1.4,6.1-2.7,12.4-5,18.2c-3.5,8.7-8.5,16.5-11.5,25.3c-1.3,3.9-3.4,7.9,0.7,10.7
        c2.9,2,7,1.5,10.2,1c26.7-4.1,54-5.8,80.9-8.5c8.3-0.8,16.5-1.6,24.8-2.1c5.6-0.4,9.8-1,14.9-3.5c2.6-1.3,5.2-2.9,8.1-3.6
        c4.8-1.2,9.8,0.5,14.5,1.1c7.1,0.9,14.3,0.8,21.4,1.1c45.7,1.6,91.5,1.4,137.2,0.7c12.9-0.2,25.8-0.2,38.6-2.2
        c-0.6-0.2-1.1-0.5-1.7-0.7c2.6,3.5,5.5,6.9,8.9,9.7c1.2,1,3.2,1.8,4.3,2.9c0.4,0.2,0.8,0.5,1.2,0.7c-0.6,0.3-1.1,0.6-1.7,0.9
        c-1.1-0.2-2.4-2.2-3.4-2.9c-3.1-2.4-5.9-2.7-9.8-2.5c-5.8,0.3-11.6,0.8-17.4,1.1c-22.1,1.2-44.1,1.6-66.2,1.1
        c-21.1-0.5-41.9-0.4-62.9,1.1c-11.4,0.8-22.7-1.8-34-2.5c-9-0.6-20.3-1.9-28.8,1.8c-4.1,1.8-7.5,3.5-12.1,3.6
        c-5.5,0.2-11,0.2-16.5,0.5c-11.7,0.6-23.4,1.4-35.1,2.6c-19.6,2-39.2,6.6-58.9,7.1c-7.7,0.2-15-0.9-22.4-2.8
        c-9.2-2.3-7.8-9.9-5.2-16.8c2.4-6.4,5.5-12.5,8.2-18.8c4-9.6,7.2-19.6,10.7-29.3c4-11.2,7.6-21.9,8.6-33.8
        c1-11.2,0.9-22.4,1.7-33.6c0.7-10,2.3-21.2-0.8-30.9c-1.6-5-5.3-10.1-7.1-14.3c-0.9,0.4-1.8,0.8-2.7,1.2c0.2,0.3,0.4,0.6,0.6,1
        c0.9-0.5,1.7-1,2.6-1.5c-5.5-9.2-10.3-19.8-17.5-27.8c-9.3-10.3-23.3-14.2-36.1-18.3c-6.4-2.1-10.6-6.1-15.8-10
        c-4.1-3-10-3.4-14.9-3.5c-14.8-0.4-30.3,2-44.8,4.6c-30.5,5.5-61.8,17-84.4,38.8c-11.3,10.9-19,24.6-24.7,39.1
        c-5.3,13.2-9.7,26.9-10.1,41.3c-0.5,19.4-1,39.5,0.7,58.9c1.3,14.6,2.9,32.1,11.8,44.3C352.4,239.6,355,238.2,353.9,236.6z"/>
    </g>
  </g>
</g>
<g id="name_1_">
  <path id="XMLID_9_" class="st1" d="M715.6,275.7l-8.5,19l-37.3,1.5c0,0,5.1,9.8,8.9,11.3s24.6,0,24.6,0l-10.5,25.6l-21.5-3
    c0,0,4.1,10.7,8.9,11.3c4.7,0.6,9.2,1.5,9.2,1.5s-9.2,32.4-6.8,39.3c2.4,6.8,5.5,10.6,5.5,10.6s4.9,6.1,6.2,6.7c0,0,1.6,2,4,3.3
    s6.4,2.3,6.4,2.3h4.6l64.1-6.1c0,0,10.5-1.9,16-3.7c5.5-1.8,9.9-3.9,11-4.6c1-0.7-7.3-12.4-9.3-11.5s-4.6,2.5-7.1,3.5
    s-15.3,3.7-18.5,4.3c-3.3,0.6-48.6,5.3-48.6,5.3l-9.9,0.8c-1.6,0.1-3.1-0.3-4.4-1.1l-0.5-0.3c-2.9-1.9-5.1-4.6-6.3-7.8l0,0
    c-0.5-1.3-0.7-2.8-0.4-4.2l7-33.9l48.7,3.2c0,0-4.2-9.3-8.9-11.1c-4.6-1.8-35.5-2.9-35.5-2.9l11.2-28.5l47.2-0.8
    c0,0-5.1-11.4-9.3-11.4s-32.6,0.2-32.6,0.2l3-7C725.9,287.4,720.5,275.9,715.6,275.7z"/>
  <path id="XMLID_8_" class="st1" d="M907.2,298.5c-0.6,0-0.9,0.7-0.6,1.2c1.8,2.7,6.4,9.1,9.3,9.7c3.7,0.8,8.2,0.5,10.8-2.4
    s4.7-8.5,3.7-11.4s-2.4-7.3-7.1-12.7c-4.7-5.4-7.7-6.7-11.9-7.2s-14.5,2-22.4,7.2s-26.4,19.8-31.9,38.1
    c-5.5,18.3,6.9,38.7,9.5,43.7s16.6,23.1,24.5,27.3c7.9,4.2,19.8,7.4,39.6,6.1c15.1-1,19.3-3.6,20.4-4.7c0.3-0.3,0.4-0.7,0.2-1.1
    c-0.7-1.7-3.3-7.1-8-9.5c-5.5-2.9-6.1,3.4-20.6,4.8c-14.5,1.3-34-3.4-38.2-8.7s-17.5-22.1-18.8-31.4s-1.8-27.6,16.1-42.9
    c17.9-15.4,31.4-23.1,36.9-18.5c5.5,4.5,0.6,8.5-0.4,9.8C917.5,296.9,910.4,298.4,907.2,298.5z"/>
  <path id="XMLID_5_" class="st1" d="M48.2,275.7l-8.5,19l-37.3,1.5c0,0,5.1,9.8,8.9,11.3s24.6,0,24.6,0l-10.5,25.6l-21.5-3
    c0,0,4.1,10.7,8.9,11.3c4.7,0.6,9.2,1.5,9.2,1.5s-9.2,32.4-6.8,39.3c2.4,6.8,5.5,10.6,5.5,10.6s4.9,6.1,6.2,6.7c0,0,1.6,2,4,3.3
    c2.4,1.3,6.4,2.3,6.4,2.3h4.6L106,399c0,0,10.5-1.9,16-3.7c5.5-1.8,9.9-3.9,11-4.6c1-0.7-7.3-12.4-9.3-11.5
    c-2.1,0.9-4.6,2.5-7.1,3.5s-15.3,3.7-18.5,4.3s-48.6,5.3-48.6,5.3l-9.9,0.8c-1.6,0.1-3.1-0.3-4.4-1.1l-0.5-0.3
    c-2.9-1.9-5.1-4.6-6.3-7.8l0,0c-0.5-1.3-0.7-2.8-0.4-4.2l7-33.9l48.7,3.2c0,0-4.2-9.3-8.9-11.1c-4.6-1.8-35.5-2.9-35.5-2.9
    l11.2-28.5l47.2-0.8c0,0-5.1-11.4-9.3-11.4c-4.1,0-32.6,0.2-32.6,0.2l3-7C58.5,287.4,53.1,275.9,48.2,275.7z"/>
  <path id="XMLID_2_" class="st1" d="M499.9,302.6c0.1-0.7,0.7-1.2,1.4-1.2c5.1,0.1,24.6,0.8,33.4,2.2c10.2,1.7,19.8,3.8,24.7,6.6
    c4.9,2.8-23.8,10.9-23.8,10.9l-38.7,8.7c-0.5,0.1-0.9-0.3-0.9-0.8L499.9,302.6z M430.4,318.4c0.9,0.6,2.1,0.6,3.1,0l8-5.3
    c10.7-6.7,36.8-10.3,44.8-11.3c1.2-0.1,2.1,0.9,1.9,2.1c-1.6,8.2-7.1,36-11.1,49.1c-3.8,12.3-9.6,35.4-11.2,41.9
    c-0.3,1.1-0.1,2.3,0.6,3.3c1.9,2.9,6.1,8.7,7.5,8.7c1.5,0,11.9-36.8,15.4-50.2c0.3-1.1,1.3-1.4,2.2-0.8c2.6,1.9,4.6,2.7,12.9,6
    c31.4,12.6,101.1,36.3,102.7,36.6c1.8,0.3-3.8-10.6-8.4-11.4s-6.1-0.6-13.7-3.2c-27.9-9.4-89.5-32.8-91.4-36.1
    c-2.4-4.3,77.3-21.4,77.6-29.2c0.3-7.7-5.4-12.3-14.6-18.2c-9.8-6.3-52.2-9.9-63.5-9.9c-5.5,0-24.3,0.5-40.5,5.2
    c-16.9,4.9-31.2,11.1-31.2,14.2C421.4,312.2,427.4,316.4,430.4,318.4z"/>
  <path id="XMLID_1_" class="st1" d="M266,300.9c0.1-0.7,0.7-1.2,1.4-1.2c5.1,0.1,24.6,0.8,33.4,2.2c10.2,1.7,19.8,3.8,24.7,6.6
    c4.9,2.8-23.8,10.9-23.8,10.9l-38.7,8.7c-0.5,0.1-0.9-0.3-0.9-0.8L266,300.9z M196.5,316.7c0.9,0.6,2.1,0.6,3.1,0l8-5.3
    c10.7-6.7,36.8-10.3,44.8-11.3c1.2-0.1,2.1,0.9,1.9,2.1c-1.6,8.2-7.1,36-11.1,49.1c-3.8,12.3-9.6,35.4-11.2,41.9
    c-0.3,1.1-0.1,2.3,0.6,3.3c1.9,2.9,6.1,8.7,7.5,8.7c1.5,0,11.9-36.8,15.4-50.2c0.3-1.1,1.3-1.4,2.2-0.8c2.6,1.9,4.6,2.7,12.9,6
    c31.4,12.6,101.1,36.3,102.7,36.6c1.8,0.3-3.8-10.6-8.4-11.4c-4.6-0.7-6.1-0.6-13.7-3.2c-27.9-9.4-89.5-32.8-91.4-36.1
    c-2.4-4.3,77.3-21.4,77.6-29.2c0.3-7.7-5.4-12.3-14.6-18.2c-9.8-6.3-52.2-9.9-63.5-9.9c-5.5,0-24.3,0.5-40.5,5.2
    c-16.9,4.9-31.2,11.1-31.2,14.2C187.5,310.5,193.5,314.8,196.5,316.7z"/>
</g>
</svg>
