<?xml version="1.0" encoding="UTF-8" standalone="no"?>
<svg class="pin-svg" width="2481" height="2073" xmlns="http://www.w3.org/2000/svg">
  <g
     transform="translate(-192.75977,-128.64539)">
    <g
       class="pin-svg-path"
       id="pin-svg_1">
      <path class="pin-svg-path" id="pin-svg_2" d="M 735.94,1840.629 C 697.17401,1650.328 628.82404,1491.964 546.03699,1345.1891 484.63001,1236.317 413.49301,1135.8261 347.673,1030.2511 325.70099,995.00702 306.73901,957.77405 285.62601,921.19702 c -42.21601,-73.13696 -76.444,-157.935 -74.269,-267.932 2.125,-107.47297 33.20799,-193.68399 78.02998,-264.172 73.71903,-115.93497 197.20102,-210.98898 362.88401,-235.96898 135.466,-20.424 262.47503,14.082 352.543,66.748 73.6001,43.03799 130.596,100.52701 173.92,168.28 45.22,70.716 76.359,154.26001 78.971,263.23199 1.337,55.83002 -7.805,107.53199 -20.684,150.41797 -13.0339,43.40906 -33.996,79.69501 -52.646,118.45404 -36.406,75.659 -82.0489,144.98196 -127.855,214.34606 C 920.08301,1341.208 792.02399,1551.912 735.94,1840.629 Z" stroke-miterlimit="10" stroke-width="37" stroke="#000000" fill="#DE4B31" clip-rule="evenodd" fill-rule="evenodd"/>
    </g>
    <circle
       class="pin-svg-path"
       id="pin-svg_3"
       cx="733.5"
       cy="637"
       r="136.20068"
       style="fill:#000000; stroke:#000000; stroke-width:5" />
  </g>
</svg>
