<svg
   xmlns="http://www.w3.org/2000/svg"
   version="1.1"
   id="svg3346"
   viewBox="0 0 1083.5754 1806.7811"
   height="509.91379mm"
   width="305.80905mm">
  <g
     transform="translate(298.93053,636.74266)"
     id="layer1">
    <g
       id="pin-svg_1"
       class="pin-svg-path"
       transform="translate(-491.6903,-765.38805)">
      <path
         style="clip-rule:evenodd;fill:#de4b31;fill-rule:evenodd;stroke:#000000;stroke-width:37;stroke-miterlimit:10"
         stroke-miterlimit="10"
         d="M 735.94,1840.629 C 697.17401,1650.328 628.82404,1491.964 546.03699,1345.1891 484.63001,1236.317 413.49301,1135.8261 347.673,1030.2511 325.70099,995.00702 306.73901,957.77405 285.62601,921.19702 c -42.21601,-73.13696 -76.444,-157.935 -74.269,-267.932 2.125,-107.47297 33.20799,-193.68399 78.02998,-264.172 73.71903,-115.93497 197.20102,-210.98898 362.88401,-235.96898 135.466,-20.424 262.47503,14.082 352.543,66.748 73.6001,43.03799 130.596,100.52701 173.92,168.28 45.22,70.716 76.359,154.26001 78.971,263.23199 1.337,55.83002 -7.805,107.53199 -20.684,150.41797 -13.0339,43.40906 -33.996,79.69501 -52.646,118.45404 -36.406,75.659 -82.0489,144.98196 -127.855,214.34606 C 920.08301,1341.208 792.02399,1551.912 735.94,1840.629 Z"
         id="pin-svg_2"
         class="pin-svg-path" />
    </g>
    <circle
       style="fill:#000000;stroke:#000000;stroke-width:5"
       r="136.20068"
       cy="-126.49493"
       cx="242.85715"
       id="pin-svg_3"
       class="pin-svg-path" />
  </g>
</svg>
